<?xml version="1.0" encoding="utf-8"?>
<!-- Generator: Adobe Illustrator 21.1.0, SVG Export Plug-In . SVG Version: 6.00 Build 0)  -->
<svg version="1.1" id="Sale_icon_1_" xmlns="http://www.w3.org/2000/svg" xmlns:xlink="http://www.w3.org/1999/xlink" x="0px"
	 y="0px" viewBox="0 0 443 500" style="enable-background:new 0 0 443 500;" xml:space="preserve">
<style type="text/css">
	.st0{fill-rule:evenodd;clip-rule:evenodd;fill:#FF0000;}
</style>
<g id="Sale_icon">
	<g>
		<path class="st0" d="M438.5,39.1c-10.6-25-28.4-39.6-65.3-39.1c-1.5,1.6-15.8,4.2-19.1,5.9C347,9.6,335.6,16.8,331,22.9
			c-1,1.4-1.3,3.2-2.5,4.4c0.2,1,0.1,0.9,0.5,1.5c0.8,1.9,10.8,8.1,13.1,8.8c2.7,0.7,10.7-10.2,14.1-12.2c14.5-8.7,33.8-9.9,48.7-1
			c11.8,7.1,24.9,30.3,17.6,49.3c-3.9,10-10.7,17.8-16.6,25.9c-7.4,10.2-14.3,20.7-21.6,30.8c-4.8,6.7-9.5,13.4-14.1,20
			c-1.7,2.5-2.6,5.9-5,7.8c0.4,6.8,10.1,7.5,13.6,11.7h1c9.9-14.3,19.4-28.8,29.6-43c11-15.1,24-29,31.1-47.9
			C445.1,67.3,442.8,49.2,438.5,39.1z M420.5,133.8c-3.8,5.6-8.4,10.7-12.1,16.1c-1.9,2.9-2.7,6.3-5.5,8.3c0.9,4.2,2.5,8.4,3.5,12.2
			c3.2,11.5-9.2,27-14.6,30.8c-18,12.7-42.4,2.7-51.2-11.2c-9.4-14.8-1-37.1,9.5-44.4c3.6-2.5,9.4-2.3,13.1-4.9
			c2.3-1.6,2.9-5.4,4.5-7.8c4.4-6.5,10-11.4,13.6-19c-3.4-1.2-7.2-0.5-11.1-1.5c-9.6-2.4-22.5-3.2-32.7-5.9H330
			c-8.4-2-19-1.6-28.1-3.9c-11.4-2.9-23.7-4.7-38.7-4.4c-1.2,0.8-3.2,0-5,0.5c-5.1,1.2-10.8,2.2-16.1,3.9
			c-12.9,4.1-24.7,8.8-34.7,15.6c-13.6,9.3-24.5,22.2-37.7,31.7c-30.7,22.3-58.8,46.5-89.4,68.9c-8.3,6.1-15.1,14.5-23.6,20.5
			c-8.6,6.2-16.1,13.5-24.6,19.5c-15.4,11-38.1,25.6-30.6,55.2c4.2,16.6,16.3,23.5,25.1,35.2c12.9,17.1,27.2,32.5,40.2,49.3
			c5.8,7.6,13.3,14.3,19.1,22c10.2,13.4,21.8,25.2,32.2,38.6c2.3,2.9,5.8,5.3,8,8.3c8,10.6,15,23.3,28.1,28.8
			c9.8,4.1,25.7,5.4,36.2,1c9.5-4,15.4-12,23.1-17.6c11.8-8.6,22.5-17.8,34.2-26.4c5-3.7,9.4-8.6,14.6-12.2
			c27.1-18.9,51.2-40.6,77.9-60.1c3.7-2.7,6.4-7.1,10-9.8c26.5-19.3,52.9-37.3,68.3-67.4c4.5-8.9,6.5-20.4,9-30.8
			c1.2-4.8,0.3-13.5-0.5-17.6c0.5-6.3,1-12.7,1.5-19v-17.6c1.3-5.8-1-14.1,0.5-20.5c1-4.3,1.1-10.1,1-15.6c-0.2-1.3-0.3-2.6-0.5-3.9
			c0.5-3.4,1.3-8,2-11.2c3.1-13.6-5.7-26.5-10-33.7H420.5z M145.7,315.5c-15.9-6.5-30.5-26.1-22.6-48.8c3.3-9.5,9.4-18.1,17.6-23
			c3.3-2,9.4-1.6,12.6-3.9c24.5-0.2,33.2,7.4,39.2,25.4c1.8,5.5,2.9,13.8,1,20.5c-1.3,4.8-2.7,10.7-5,15.1
			c-5.1,9.7-14.6,14.6-26.6,17.6C155.5,320,149.3,317,145.7,315.5z M208.5,313.6c-5.3,9.5-9.3,19.2-15.1,28.3
			c-2.7,4.3-6.5,8.8-9,13.2c-1.4,2.4-1.5,5.4-3,7.8c-1.7,2.7-4.2,4.6-5,8.3c-5,0.1-11.1,0.3-16.1,0c0.6-3.4,2.7-5.4,4-7.8
			c5.6-10,11.7-19.2,17.1-28.8c12.2-21.9,23.9-43.2,36.2-65c5.6-9.9,12.7-19.8,17.6-30.3c2.9,0.3,10.4,1.7,13.1,0
			c1.3,0.1,1.7,0.2,2.5,0.5c-1.3,5.1-4.6,7.9-7,11.7c-2.1,3.3-3.1,6.7-5,10.3c-2,3.5-5.1,7.3-7,10.7c-1.8,3.2-2.2,6.5-4,9.8
			C221.7,292.8,214.3,303.1,208.5,313.6z M286.8,346.3c-5.2,14-16,21.8-32.2,25.4c-7.6,1.7-15-3-19.1-5.4
			c-14.1-8.3-25.3-27.4-17.1-49.3c3.2-8.4,10.4-18,18.6-21.5c3.8-1.6,9.5-0.7,12.6-2.9c19.8-0.2,32.2,8.4,37.2,22.5
			c0.3,3.4,0.7,6.8,1,10.3C289.3,331.5,289,340.5,286.8,346.3z M171.8,274.5c-2.2-9.5-4.6-18.7-16.6-18.6c-2.8,4-7.1,5.5-9,10.7
			c-4.7,12.4,1.5,27.3,6,34.2c1.9,0.6,5.2,2.5,7.5,1C167.8,301.5,174.3,285.1,171.8,274.5z M257.7,309.7c-2.5-0.3-4-1-7-1
			c-2.6,3.2-7.2,3.7-9,7.8c-3.1,7-3.6,25.5,0.5,31.7c2.3,2.1,4.7,4.2,7,6.3c3.8,0.1,7.5,0.1,9.5-1.5c7.9-2.7,9.2-28.3,5-37.1
			C262.5,313.4,259.3,312,257.7,309.7z"/>
	</g>
</g>
</svg>
